<svg viewBox="0 0 24 24" xmlns="http://www.w3.org/2000/svg" fill="#af0000" height="100%" width="100%"><path fill-rule="evenodd" clip-rule="evenodd" d="M21.811 14.989s-2.73-.736-5.557-.736c-1.868 0-4.599.322-5.605.552-.478.092-1.628.184-2.06-.874l-.19-.414s-.336-.873-.815-2.023c1.676-.322 5.173-.873 8.67-.505.67.045 1.246-.368 1.294-1.012.048-.644-.384-1.195-1.054-1.241-4.12-.414-8.096.23-9.725.597C6.242 8 5.811 6.805 5.715 6.575c-.383-1.15.336-2.713.432-3.77.095-1.058 0-2.07 0-2.07C6.147.323 5.81 0 5.38 0H2.266C1.836 0 1.5.322 1.5.736v4.46s0 .735.048.965c.048.184.24.782.24.782l3.065 8.735.144.46c0 .046 0 .046.048.092.431 1.057 1.245 1.93 2.251 2.529a37.16 37.16 0 00-1.006 1.93c-.479.966-.527 1.748-.095 2.392.574.873 1.82.919 2.251.919h9.533c.43 0 .766-.322.766-.736 0-.413-.335-.735-.766-.735H8.446c-.335 0-.91-.092-1.054-.276-.048-.092-.048-.368.192-.874.383-.735.766-1.425 1.054-2.023.43.092.91.184 1.34.184h10.97c.432 0 .623-.322.767-.735l.767-2.989c.096-.506-.192-.644-.671-.828zm-13.27 3.034c-.67 0-1.197-.506-1.197-1.15 0-.643.527-1.149 1.198-1.149.67 0 1.197.506 1.197 1.15-.048.643-.574 1.149-1.197 1.149z"></path></svg>