<svg viewBox="0 0 24 24" xmlns="http://www.w3.org/2000/svg" height="100%" width="100%"><path fill="#af0000" fill-rule="evenodd" clip-rule="evenodd" d="M18.462 9c.791 0 1.459.563 1.557 1.314l.956 7.314c.215 1.644-1.005 3.143-2.725 3.349-.129.015-.26.023-.39.023H6.14C4.405 21 3 19.657 3 18c0-.124.008-.249.024-.372l.957-7.314C4.079 9.564 4.747 9 5.538 9h12.924zm-2.539 3H8.076c-.433 0-.784.336-.784.75a.76.76 0 00.643.738l.141.012h7.847c.434 0 .785-.336.785-.75s-.351-.75-.785-.75zM12 3c2.08 0 3.782 1.547 3.915 3.503l.008.247c0 .414-.35.75-.784.75a.776.776 0 01-.772-.615l-.013-.135C14.354 5.507 13.3 4.5 12 4.5c-1.224 0-2.23.892-2.344 2.033l-.01.217c0 .414-.352.75-.785.75a.776.776 0 01-.772-.615l-.013-.135C8.076 4.679 9.833 3 12 3z"></path></svg>