<svg viewBox="0 0 24 24" xmlns="http://www.w3.org/2000/svg" fill="#af0000" height="100%" width="100%"><path fill-rule="evenodd" clip-rule="evenodd" d="M18 6a3 3 0 013 3v10.5a3 3 0 01-3 3l-.01.175a1.5 1.5 0 01-2.98 0L15 22.5H9a1.5 1.5 0 01-2.99.175L6 22.5a3 3 0 01-3-3V9a3 3 0 013-3h12zm-5.25-6c1.17 0 2.13.892 2.24 2.033l.01.217v1.5a.75.75 0 01-1.488.135L13.5 3.75v-1.5a.75.75 0 00-.615-.738L12.75 1.5h-1.5a.75.75 0 00-.738.615l-.012.135v1.5a.75.75 0 01-1.488.135L9 3.75v-1.5C9 1.08 9.892.12 11.033.01L11.25 0h1.5z"></path></svg>