<svg viewBox="0 0 24 24" xmlns="http://www.w3.org/2000/svg" fill="#af0000" height="100%" width="100%"><path fill-rule="evenodd" clip-rule="evenodd" d="M18 7.5A1.5 1.5 0 0119.5 9v12a1.5 1.5 0 01-1.5 1.5l-.01.175a1.5 1.5 0 01-2.98 0L15 22.5H9a1.5 1.5 0 01-2.99.175L6 22.5A1.5 1.5 0 014.5 21V9A1.5 1.5 0 016 7.5h12zM12 9a.75.75 0 00-.738.615l-.012.135v10.5a.75.75 0 001.488.135l.012-.135V9.75A.75.75 0 0012 9zm3.75 0a.75.75 0 00-.738.615L15 9.75v10.5a.75.75 0 001.488.135l.012-.135V9.75a.75.75 0 00-.75-.75zm-7.5 0a.75.75 0 00-.738.615L7.5 9.75v10.5a.75.75 0 001.488.135L9 20.25V9.75A.75.75 0 008.25 9zm4.5-9c1.17 0 2.13.892 2.24 2.033l.01.217v3a.75.75 0 01-1.488.135L13.5 5.25v-3a.75.75 0 00-.615-.738L12.75 1.5h-1.5a.75.75 0 00-.738.615l-.012.135v3a.75.75 0 01-1.488.135L9 5.25v-3C9 1.08 9.892.12 11.033.01L11.25 0h1.5z"></path></svg>