<svg viewBox="0 0 24 24" xmlns="http://www.w3.org/2000/svg" fill="#af0000" height="100%" width="100%"><path fill-rule="evenodd" clip-rule="evenodd" d="M6.662.5h10.676l.44.714 4 6.5.655 1.065-.93.836-2.6 2.34a8 8 0 11-13.807 0l-2.6-2.34-.929-.836.656-1.065 4-6.5L6.662.5zm8.748 10.563A5.966 5.966 0 0012 10a5.983 5.983 0 00-1.096.1 6.002 6.002 0 103.4 11.441 6.002 6.002 0 003.071-8.21 6.026 6.026 0 00-1.965-2.268zm3.157-2.842l-1.64 1.476A7.966 7.966 0 0012 8c-1.859 0-3.57.634-4.927 1.697l-1.64-1.476L8.338 3.5h7.324l2.905 4.721z"></path><path d="M13.182 11.89V19h-1.646v-5.254l-1.621.474v-1.25l3.115-1.08h.152z"></path></svg>