
        <svg xmlns="http://www.w3.org/2000/svg" version="1.1" viewBox="0 0 3162.212748258293 544.3485813415598">
			<g transform="scale(8.11063741291463) translate(10, 10)">
				<defs id="SvgjsDefs2708"/><g id="SvgjsG2709" featureKey="symbolFeature-0" transform="matrix(0.5154856429065569,0,0,0.5154856429065569,-2.216588362819278,-2.268136877949392)" fill="#E40000"><g xmlns="http://www.w3.org/2000/svg"><path d="M50,4.4C24.8,4.4,4.3,24.9,4.3,50.1c0,25.2,20.5,45.7,45.7,45.7s45.7-20.5,45.7-45.7C95.7,24.9,75.2,4.4,50,4.4z    M89.4,44.8l-0.2,0c-0.6,0-0.8-0.1-1-0.2c-0.1-0.1-0.2-0.1-0.5-0.2c-0.8-0.1-1-0.4-1.3-0.7c-0.1-0.1-0.2-0.2-0.4-0.4   c-0.4-0.3-0.6-0.6-0.8-0.9c-0.2-0.2-0.3-0.5-0.6-0.8c-0.1-0.1-0.4-0.4-0.4-0.9c0-0.2,0.2-0.4,0.3-0.5c-0.6-0.3-1.6-0.7-1.8-0.7   c-0.2,0-0.3-0.1-0.9-0.5c-0.5-0.4-1.3-0.9-1.9-1.2c-0.7-0.3-1-0.6-1.5-1c-0.3-0.2-0.7-0.5-1.3-0.9c-1.4-1-1.5-1-3.6-1.1   c-1.4-0.1-1.6,0-2.1,0.2c-0.2,0.1-0.5,0.2-0.8,0.3c-0.7,0.2-1,0.7-1.4,1.3c-0.2,0.3-0.5,0.7-0.9,1.1l-0.1,0.1c-0.9,1-1.4,1.4-2,2.4   C65.7,41,65,41.4,64,41.5c-0.2,0-2.3,0.2-2.8,0.2c-0.3,0-0.7-0.1-1.1-0.1c-0.4-0.1-0.7-0.1-1.1-0.2c-0.4,0-0.4-0.1-0.8,0.1   c-0.2,0.1-0.4,0.2-0.7,0.3c-0.7,0.3-1.4,0.3-1.8,0.2c-0.1,0-0.1,0-0.2,0c0,0-0.1,0-0.2,0c-0.5,0-2.3-0.2-2.9-0.6   c-0.4-0.2-1-0.3-2.2-0.4l-0.2,0c-0.7,0-0.8,0-1,0.2c0,0-0.1,0.1-0.2,0.1l0,0.1l-0.2,0.1c-0.1,0-0.1,0.1-0.2,0.1   c-0.1,0.1-0.3,0.1-0.4,0.2c-0.1,0-0.1,0.1-0.2,0.1c-0.2,0.1-0.4,0.2-0.5,0.3c-0.1,0.1-0.2,0.3-0.3,0.7c0,0.2-0.1,0.3-0.2,0.6   c-0.4,2.1,0.9,3.2,2.6,4.5c0.4,0.3,0.8,0.6,1.1,0.9c1.5,1.4,2.1,1.1,2.8,1c0.4,0,0.8-0.1,1.3-0.1c1.6,0.1,5.2-0.1,5.3-0.1   c0,0,0.1,0,0.2,0c1.5,0,1.8,2.1,2,3.5c0.2,1.4-0.3,1.9-0.9,2.5c-0.1,0.1-0.3,0.3-0.5,0.5c-0.7,0.9-1,1.2-0.9,2.2   c0,0.1,0,0.2,0.5,0.2c0.8,0,2.1-0.5,2.4-0.7c0.2-0.1,0.5-0.2,0.9-0.2c0.6,0,2.8,0.3,2.8,1.3c0,0.7-0.7,0.9-1.5,1.2   c-0.3,0.1-0.7,0.2-1,0.4l0.1,0c0.1,0,0.2,0,0.4,0c0.9,0.1,1.8,0.2,2.3,0.5c0,0,2.1,1.4,2,2.6c-0.1,0.4-0.5,1-0.9,1.5   c-0.2,0.3-0.6,0.8-0.6,0.9c0.1,0.3,0.4,0.8,0.6,0.9c0,0,0,0,0,0c0.7,0,1.1,1,1.2,1.2c0.1,0.2,0.4,0.7,0.6,0.7   c0.2-0.1,0.8,0.1,1.8,0.4c0.6,0.2,1,0.3,1.3,0.5c0.2-0.1,0.3-0.1,0.3-0.1c0.5,0,0.8,0.6,0.9,1.2c0,0.1,0,0.1,0.2,0.2   c0.2,0.1,0.4,0.2,0.6,0.4c0,0,0.1,0.1,0.3,0.1c0.2,0,0.3,0,0.5-0.1c0.2,0,0.3,0,0.4-0.1c0,0,0,0,0,0c0.3,0,0.4,0.1,0.6,0.2   c0.2,0.2,0.2,0.5,0.2,0.7c0,0.1,0,0.2,0,0.3c0,0.1,0.1,0.2,0.2,0.3c0.2,0.3,0.4,0.6,0.4,1.1c0,0.6-0.1,0.8-0.3,1.2   c0,0.1-0.1,0.2-0.2,0.3c-0.1,0.2-0.2,0.4-0.2,0.5c0,0.1,0,0.1-0.1,0.2c0,0.1,0.1,0.1,0.1,0.2c0.1,0.2,0.2,0.5,0.3,0.7   c0.1,0.3,0,0.4-0.1,0.5c0.1,0.3,0.1,0.5,0.2,0.9c0.1,1.3-0.7,1.7-1.6,2.2c-0.3,0.2-0.6,0.3-1,0.6c-0.2,0.2-0.6,0.3-1.2,0.5   c-0.2,0.3-0.6,0.4-1,0.6c-0.2,0.1-0.3,0.1-0.5,0.2l-0.4,0.2c-0.3,0.1-0.6,0.3-1.3,0.6c-0.7,0.3-1.1,0.4-1.4,0.4   c-0.3,0-0.5,0.1-0.8,0.2c-0.6,0.3-1.1,0.3-1.4,0.3c-0.1,0-0.2,0-0.3,0c-0.2,0-0.8,0.4-1.2,0.7c-0.4,0.2-0.8,0.5-1.1,0.6   c-0.7,0.3-1,0.4-2.4,0.3l-0.1,0c-0.7,0-1,0-1.3-0.1c-1.5,0.8-3.8,0.9-5.7,0.9l-0.5,0c-0.8,0-1.3-0.2-1.7-1.1   c-0.1-0.2-0.2-0.4-0.4-0.6c-0.3-0.4-0.7-0.9-0.7-2c0-0.1,0-0.1,0.1-0.2c-1.3,0.3-3.5,0.6-3.5,0.6c-0.8,0.1-1.6-0.4-2.2-0.8   c-0.4-0.3-0.8-0.6-1.1-0.6c-1.1,0-1.8,0-2.9-0.3c-0.8-0.2-0.9-0.6-0.9-0.9c-0.1-0.6,0.6-1.2,1-1.4c0,0,0,0,0,0   c-0.2,0-0.4,0.1-0.6,0.1c-0.7,0-1.3-0.3-1.5-0.9c-0.2-0.4-0.9-1-1.5-1.3c-0.7,0-1.5,0.1-2.3,0.3c0.5,0.5,0.7,0.9,0.5,1.2   c0,0.1-0.1,0.1-0.1,0.2c-0.3,0.6-0.6,0.9-1.7,0.9c-0.3,0-0.6,0-1-0.1c-1.1-0.2-1.4-0.7-1.6-1.1c-0.2-0.3-0.3-0.5-0.7-0.7   c-0.8-0.5-1.7-1.2-2.5-1.9c-0.4-0.3-0.8-0.7-1-0.8c-0.9-0.6-0.7-4.6-0.7-4.6c0-0.5-1.5-2.1-2.5-2.4c-0.8-0.2-1.4-0.5-2-0.8   c-0.3-0.1-0.6-0.3-0.9-0.4c-0.4-0.2-0.7-0.4-1-0.5c-0.3-0.2-0.4-0.3-0.6-0.3c-0.8,0-1.3-0.1-1.8-0.6c-0.2-0.2-0.2-0.5-0.3-0.7   c-0.1-0.4-0.1-0.5-0.4-0.5c-1,0-1.6-0.2-1.9-0.7c-0.1-0.2-0.2-0.5-0.1-0.9c0.1-0.4,0.4-0.6,0.5-0.8c0,0,0.1-0.1,0.1-0.1   c0,0,0,0,0-0.2c-0.1-0.3-0.3-0.6-0.4-0.9c-0.3-0.5-0.6-1-0.3-1.4c0.2-0.4,0.6-0.4,0.9-0.4c0.1,0,0.1,0,0.2,0   c-0.1-0.2-0.3-0.2-0.7-0.3c-0.5-0.1-1-0.1-1.4-0.5c-0.2-0.2-0.4-0.2-0.6-0.2c-0.3,0-0.6-0.1-0.8-0.4c-0.1-0.2-0.2-0.5-0.1-0.8   l0.1-0.3l0.3,0c0,0,2.1-0.2,2.6-0.2c0.8,0,2-0.3,2.6-0.7c0-0.1-0.1-0.1-0.1-0.2c-0.1-0.4-1.7-2.2-2.3-2.2c-1.2-0.1-2.1-0.7-2.1-1.6   c0-0.5,0.4-1.1,0.7-1.6c0.2-0.3,0.3-0.5,0.4-0.7c0,0,0-0.3-1.2-1.1c-0.2-0.1-0.3-0.2-0.4-0.3c-0.5-0.4-0.5-1-0.6-1.8l0-0.3   c-0.1-1,0.5-1.6,1-2.1c0.1-0.1,0.2-0.2,0.3-0.4c0.2-0.2,0.7-1,1.1-1.8c0.6-1,1.2-2.1,1.6-2.5c0.2-0.2,0.1-0.9,0.1-1.4   c-0.1-0.7-0.1-1.6,0.6-1.7c0.1,0,0.2-0.1,0.2-0.1c0,0,0-0.1-0.1-0.1c-0.1-0.1-0.1-0.1-0.4-0.1c-0.2,0-0.4,0-0.7-0.1   c-0.4-0.1-0.7-0.2-0.8-0.5l-0.4,0l-0.2,0c-0.6,0-1.9-0.1-2-1.3c0-0.4-0.1-0.9,0.5-1c0.4-0.7,1.2-1.5,2.1-1.9c0.3-0.1,0.7-0.3,1-0.5   c1-0.5,1.3-0.5,1.6-0.3c0.3,0.1,0.5,0.2,0.9-0.1c0.2-0.1,0.4-0.3,0.4-0.3c0.2-0.1,0.3-0.3,0.7-0.3c0.2,0,0.6,0.1,1.2,0.2   c1.2,0.2,1.9,0.3,2.3,0.3c0.2-0.2,0.6-0.6,1.4-1c0.4-0.2,0.6-0.4,0.8-0.5c0.4-0.3,0.8-0.5,1.4-0.4c0.4,0.1,0.8,0.4,1.2,0.6   c0.2,0.2,0.5,0.4,0.7,0.4c0.3,0.1,0.5,0.3,0.8,0.5c0.4,0.3,0.7,0.5,1.1,0.4c0.9-0.3,1.2-0.3,1.9-0.4l0.1,0c0.2,0,0.4,0,0.6,0   c0.7-0.1,1.4-0.1,1.8,0c0.3,0.1,0.7,0.4,1.1,0.6c0.2,0.2,0.5,0.4,0.7,0.4c0.1,0,0.3,0,0.4,0.1c0.2,0.1,0.4,0.1,0.5,0   c0.4-0.3,0.5-0.4,0.6-1.1c0.1-0.6,0-0.7-0.6-1.3c-0.5-0.5-0.5-0.5-1.6-0.8l-0.1,0c-1-0.3-1.3-0.5-1.5-1.1c0,0,0-0.1,0-0.1   c0-0.1-0.1-0.2-0.2-0.3c0,0,0,0,0-0.1c-0.2-0.1-0.4-0.1-0.6-0.3l-0.2-0.1c-0.3-0.2-0.7-0.2-1-0.2l-0.3,0c-0.1,0-0.1,0-0.2,0   c-0.2,0-0.7,0-1.1,0c-0.3,0-0.6,0-0.7,0c-0.2,0-0.6,0.1-1.3,0.4l-0.3,0.1c-0.2,0.1-0.4,0.2-0.6,0.3c-0.2,0.1-0.3,0.2-0.5,0.2   c-0.4,0-0.7-0.3-0.8-0.4c-0.3-0.3-0.6-1.4-0.6-1.7c0-0.5,0.5-0.7,0.8-0.9c0.1,0,0.1-0.1,0.2-0.1c0,0,0-0.2-0.1-0.5   c-0.2-0.3-0.1-0.6,0-0.7c0.2-0.4,0.8-0.4,1.4-0.4l0.3,0c0.2-0.2,0.5-0.5,1.1-1c0.9-0.8,6.3-2.5,7-2.7c0.3-0.1,1.8-0.6,2.3-0.6h1.8   c2.3,0,6.5,0.4,7.5,0.8c0.8,0.4,1.8,0.4,3.5,0.4c1.8,0,4.5,0.5,5.4,0.8c0.3,0.1,1.2,0.3,2.2,0.5c1.6,0.3,3.6,0.8,4.4,1.1   c1,0.4,2.8,1.7,4,2.8c0,0,0,0,0.1,0l0.3,0c1,0,1.4,0.3,1.9,0.8c0.2,0.2,0.4,0.4,0.8,0.7c0.6,0.5,1.2,1.2,1.8,1.9   c0.8,0.9,1.6,1.8,2.2,2.1c1.4,0.5,2.1,0.9,2.6,1.2c0.1,0.1,0.6,0.3,1,0.6c1.7,0.9,2.3,1.3,2.4,1.7c0.1,0.1,0.5,0.6,0.8,0.9   c0.7,0.7,1.2,1.2,1.4,1.6c0.1,0.4,0,0.6,0,0.7c-0.1,0.1-0.2,0.3-0.6,0.3c-0.4,0-0.9-0.2-1-0.3c-0.1-0.1-0.5-0.2-0.8-0.3   c0,0.2,0.1,0.3,0.1,0.4c0.1,0.1,1.3,1,1.4,1.1l0.5,0.3c0.6,0.4,1.5,1,1.9,1.3c0.1,0.1,0.2,0.2,0.3,0.2c-0.1-0.2-0.2-0.4-0.3-0.6   l-0.4-0.7h0.8c0,0,1.1,0,1.7,0c0.6,0,1.1,0,1.7,0.2c0.6,0.2,0.9,0.8,1.2,1.4l0.3,0.6c0.3,0.7,0.6,1.2,1,2.8   c0.2,0.8,0.2,1.3-0.1,1.7C90.5,44.7,89.9,44.8,89.4,44.8z"/><polygon points="32.4,24.8 32.4,24.8 32.4,24.8  "/></g></g><g id="SvgjsG2710" featureKey="nameFeature-0" transform="matrix(0.9653069473191276,0,0,0.9653069473191276,66.43404109724104,-0.9915921812303203)" fill="white"><path d="M22.539 40 l-2.0508 -5.8203 l-11.855 0 l-2.0508 5.8203 l-5.9961 0 l10.391 -28.223 l7.168 0 l10.391 28.223 l-5.9961 0 z M10.352 29.277 l8.418 0 l-4.1992 -11.973 z M40.03901875 40 l0 -28.223 l5.8594 0 l0 28.223 l-5.8594 0 z M75.351875 40 l-7.3438 -12.422 l-1.6992 0 l0 12.422 l-5.8594 0 l0 -28.223 l10.234 0 c6.3867 0 9.082 3.7695 9.082 8.4375 c0 3.7891 -2.1484 6.25 -5.9766 7.0703 l8.4961 12.715 l-6.9336 0 z M66.308575 16.641 l0 6.7383 l3.457 0 c3.125 0 4.3945 -1.3281 4.3945 -3.3594 c0 -2.0117 -1.2695 -3.3789 -4.3945 -3.3789 l-3.457 0 z M123.2425625 11.777000000000001 c5.5273 0 8.9648 4.1016 8.9648 9.1211 c0 5.1367 -3.4375 8.9844 -8.9648 8.9844 l-5.8789 0 l0 10.117 l-5.8594 0 l0 -28.223 l11.738 0 z M122.2655625 24.98 c2.9297 0 4.2969 -1.6211 4.2969 -4.1602 c0 -2.4414 -1.3672 -4.1406 -4.2969 -4.1406 l-4.9023 0 l0 8.3008 l4.9023 0 z M163.2811875 40 l-2.0508 -5.8203 l-11.855 0 l-2.0508 5.8203 l-5.9961 0 l10.391 -28.223 l7.168 0 l10.391 28.223 l-5.9961 0 z M151.0941875 29.277 l8.418 0 l-4.1992 -11.973 z M200.05890625 11.777000000000001 l5.8398 0 l0 28.223 l-6.7773 0 l-12.5 -20.176 l0 20.176 l-5.8398 0 l0 -28.223 l6.6992 0 l12.578 20.059 l0 -20.059 z M232.67540625 40.39063 c-8.1445 0 -14.141 -5.625 -14.141 -14.434 c0 -8.9258 6.1328 -14.57 14.434 -14.57 c5.4492 0 9.9609 2.4023 12.422 6.6406 l-5.1367 2.7344 c-1.4844 -2.8906 -4.1406 -4.2773 -7.2852 -4.2773 c-4.8828 0 -8.5547 3.3594 -8.5547 9.3359 c0 5.7617 3.4375 9.4727 8.7695 9.4727 c3.6133 0 6.9336 -1.7969 7.7344 -5.918 l-7.7148 0 l0 -4.707 l13.262 0 l0 15.332 l-4.6094 0 l0 -3.9063 c-1.8164 2.6758 -4.8633 4.2969 -9.1797 4.2969 z M276.17234375 16.934 l-10.469 0 l0 6.4063 l9.2773 0 l0 5.0977 l-9.2773 0 l0 6.3867 l10.469 0 l0 5.1758 l-16.367 0 l0 -28.223 l16.367 0 l0 5.1563 z M308.3593125 40 l-2.0508 -5.8203 l-11.855 0 l-2.0508 5.8203 l-5.9961 0 l10.391 -28.223 l7.168 0 l10.391 28.223 l-5.9961 0 z M296.1723125 29.277 l8.418 0 l-4.1992 -11.973 z"/></g>
			</g>
		</svg>
	