<svg viewBox="0 0 17 17" xmlns="http://www.w3.org/2000/svg" height="20" width="20" fill="white"><g fill-rule="evenodd"><path d="m10.7420984 8.8035557c2.1752042 0 3.9320999 1.7568957 3.9320999 3.9320999 0 2.1752041-1.7568957 3.9320998-3.9320999 3.9320998-2.17520414 0-3.93209982-1.7568957-3.93209982-3.9320998 0-2.1752042 1.75689568-3.9320999 3.93209982-3.9320999zm.6579002 4.4611175v-2.8868482c0-.2386819-.0565616-.41839538-.1702865-.54114609-.1133238-.12174785-.2575359-.18312321-.4312321-.18312321-.1746992 0-.3165043.0625788-.4252149.18793696-.1087106.12515759-.1632665.30366764-.1632665.53633234v2.8525502c0 .2350716.0545559.4123782.1632665.5317192s.2505157.17851.4252149.17851c.1748997 0 .3179083-.059169.4312321-.17851.1137249-.119341.1702865-.2846132.1702865-.4974212zm-.17851 2.5037822c.1195415-.0990831.17851-.2420917.17851-.4312321 0-.1831232-.0577651-.3261318-.1748997-.4288252-.1157307-.102894-.2541261-.1548424-.4135817-.1548424-.1654728 0-.3072779.050745-.4254155.1524355-.1181375.10149-.1761031.245702-.1761031.4312321 0 .1690831.0603725.307278.1809169.4159886.1203438.1087106.2611461.1630659.4206017.1630659.153639 0 .290831-.0495416.4099714-.1478224z"></path><path d="m16.7200853 3.04674418c-.51-.918-3.332-.306-4.25.204-.068.034-.136.102-.238.136l-1.53 1.02-6.46000004-4.148c-.272-.204-.408-.34-.646-.204l-.816.476c-.544.306-.408.374-.17.646l4.216 4.59.51.884-.782.51c-.986.544-2.074 1.428-2.89 2.244l-2.652-1.326c-.408-.204-.408-.306-.646-.17-.51.306-.408.306-.17.646l1.802 2.24400002c.068.102.17.204.306.204-.034.102-.068.17-.034.204 0 .034.068.034.102.068-.034.102 0 .238.068.34l.986 2.72c.17.374.102.476.646.17.238-.136.136-.17.17-.646l.238-2.89c.714-.17 1.496-.442 2.244-.748.816-1.32600002 2.278-2.24400002 3.94400004-2.24400002.646 0 1.224.136 1.768.374l-.034-.884 1.666-.782c.102-.034.17-.068.238-.102.952-.51 2.924-2.618 2.414-3.536z"></path></g></svg>