<svg xmlns="http://www.w3.org/2000/svg" viewBox="0 0 64 64" height="100%" width="100%"><path d="M55.6 55.4c0 .8-.4 1-1 .3L49.1 49c-.5-.6-1-1.8-1-2.7V13.1c0-.8.4-1 1-.3l5.6 6.7c.5.6 1 1.8 1 2.7v33.2zM30 37.1S18.8 29 17.9 19.9h-7.5c-1.7 0-3 1.4-3 3V53c0 1.7 1.4 3 3 3h27.2V30.3c-3.5 4.2-7.6 6.8-7.6 6.8zm.4 4.4c-1.8 3.9-5.5 6.5-9.7 7-.6 1.8-2.3 3.1-4.3 3.1-2.5 0-4.5-2-4.5-4.5s2-4.5 4.5-4.5c1.9 0 3.6 1.2 4.2 2.9 3.1-.4 5.7-2.4 7-5.2.3-.8 1.2-1.1 2-.7.8.3 1.2 1.2.8 1.9z"></path><circle cx="16.4" cy="47.1" r="1.5"></circle><path d="M30 7.9c-5.8 0-10.6 5.1-10.6 11.3C19.5 27.4 30 35 30 35s10.6-6.8 10.6-15.8c0-6.3-4.8-11.3-10.6-11.3zM30 23c-2.5 0-4.5-2-4.5-4.5s2-4.5 4.5-4.5 4.5 2 4.5 4.5-2 4.5-4.5 4.5z"></path><path d="M45.6 12.8L42.1 17c.1.6.1 1.2.1 1.8 0 3.5-1.4 6.7-3.2 9.4v27.2c0 .8.4 1 1 .3 0 0 2.2-2.7 3.3-3.9.8-1 2.3-2.8 2.3-2.8.5-.6 1-1.8 1-2.7V13.2c0-.9-.4-1-1-.4z"></path></svg>