<svg xmlns="http://www.w3.org/2000/svg" viewBox="0 0 64 64" height="100%" width="100%"><path d="M56.4 32H13V17.6c0-.9-.7-1.6-1.6-1.6H8.6c-.9 0-1.6.7-1.6 1.6v28.8c0 .9.7 1.6 1.6 1.6h2.8c.9 0 1.6-.7 1.6-1.6V38h38v8.4c0 .9.7 1.6 1.6 1.6h2.8c.9 0 1.6-.7 1.6-1.6v-8.5c.6-.2 1-.8 1-1.5v-2.8c0-.9-.7-1.6-1.6-1.6z"></path><circle cx="19.4" cy="21" r="4.7"></circle><path d="M16.5 27c-.8 0-1.5.7-1.5 1.5s.7 1.5 1.5 1.5h39.1c.9 0 1.3-.3 1.3-1.2v-4.7c0-4.4-3.3-8.1-7.7-8.1H27.1c-.8 0-1 .8-1 1.6V27h-9.6z"></path></svg>