<svg viewBox="0 0 64 64" xmlns="http://www.w3.org/2000/svg" height="100%" width="100%"><path d="m37.2 18h-13.2v4h12.7c0-2 .2-3 .5-4zm18.3 29h-2v-16.4c-1 .7-2 1.2-3 1.5v14.9h-13c0 .7.2 1-.5 1h-10c-.7 0-1.5-.3-1.5-1h-13v-10h-3v10h-1c-.9 0-2 .4-2 1.3v3.1c0 .9 1.1 1.5 2 1.5h47c.9 0 1-.7 1-1.5v-3.1c0-.9-.1-1.3-1-1.3zm-7.8-34.8c-5.2 0-9.4 4.2-9.4 9.4s4.2 9.4 9.4 9.4 9.4-4.2 9.4-9.4-4.2-9.4-9.4-9.4zm5.4 8.4-5.3 5.3c-.3.3-.7.5-1.1.5s-.8-.2-1.1-.5l-3.3-3.3c-.6-.6-.6-1.6 0-2.2s1.6-.6 2.2 0l2.2 2.2 4.2-4.2c.6-.6 1.6-.6 2.2 0s.6 1.6 0 2.2z"></path><path d="m36.5 33.8 1.5-1.3.2-.2c.8-.8 2.2-3.5 1.4-4.2-.8-.8-3.5.6-4.2 1.4l-.2.2-1.3 1.5-7.7-2.4c-.3-.1-.5-.2-.7 0l-.7.7c-.5.5-.3.5 0 .7l5.6 3.4.7.7-.7.8c-.8.8-1.7 2-2.3 3.1l-3-.6c-.5-.1-.5-.2-.7 0-.5.5-.3.4 0 .7l2.5 1.8c.1.1.2.1.3.1v.2h.2c0 .1 0 .2.1.3l1.8 2.5c.3.3.2.5.7 0 .2-.2.1-.2 0-.7l-.6-3c1-.6 2.2-1.4 3.1-2.3l.8-.7.7.7 3.4 5.6c.2.3.2.5.7 0l.7-.7c.2-.2.1-.4 0-.7zm-16.7-23.1h-10.1c-1.5 0-2.8 1.1-2.8 2.6v20.2c0 1.4 1.3 2.6 2.8 2.6h10.1c1.5 0 2.8-1.2 2.8-2.6v-20.3c0-1.4-1.3-2.5-2.8-2.5zm-7.4 1.6c0-.1.1-.1.1-.1h4.4c.1 0 .1.1.1.1v.3c0 .1-.1.1-.1.1h-4.4c-.1 0-.1-.1-.1-.1zm2.3 22.6c-.7 0-1.2-.5-1.2-1.1s.6-1.1 1.2-1.1c.7 0 1.2.5 1.2 1.1s-.5 1.1-1.2 1.1zm6.4-4c0 .5-.4.9-1 .9h-10.7c-.5 0-1-.4-1-.9v-16.3c0-.5.4-.9 1-.9h10.7c.5 0 1 .4 1 .9z"></path></svg>