<svg xmlns="http://www.w3.org/2000/svg" viewBox="0 0 64 64" height="100%" width="100%"><path d="M32 29.4c-2.3 0-4.2 1.9-4.2 4.2s1.9 4.2 4.2 4.2 4.2-1.9 4.2-4.2-1.9-4.2-4.2-4.2z"></path><path d="M55.1 16.8H37.3v-2.6c0-.5-.5-1-1-1H27c-.5 0-1 .5-1 1v2.6H8.9c-1.6 0-3 1.3-3 3v27.9c0 1.7 1.4 3 3 3h46.2c1.7 0 3-1.3 3-3V19.8c0-1.6-1.4-3-3-3zM32 42.7c-5 0-9.2-4.1-9.2-9.2s4.1-9.2 9.2-9.2 9.2 4.1 9.2 9.2-4.2 9.2-9.2 9.2zm20.4-16.8c0 .5-.5 1-1 1h-3.2c-.5 0-1-.5-1-1v-3.2c0-.5.5-1 1-1h3.2c.5 0 1 .5 1 1v3.2z"></path></svg>